#!OML:ASF F:\VICON\USERDATA\INSTALL\Justin_Nancy\Justin_Nancy.ASF
:FULLY-SPECIFIED
:DEGREES
65
root -9.0489 17.3393 -25.6739 1.2735 -4.63945 -2.9924
lowerback 6.13055 1.85662 2.1806
upperback 0.396976 2.69723 2.3711
thorax -3.04072 1.32661 0.988589
lowerneck -16.3124 -3.89875 -8.501
upperneck 19.654 -4.35687 5.17663
head 9.17713 -2.11952 2.62961
rclavicle -2.28602e-015 -9.93923e-015
rhumerus -23.8938 -5.68994 -80.4017
rradius 37.3605
rwrist 2.94592
rhand -14.207 9.28588
rfingers 7.12502
rthumb 11.9295 -20.3542
lclavicle -2.28602e-015 -9.93923e-015
lhumerus -32.3625 13.1693 85.7902
lradius 20.008
lwrist -13.8344
lhand -18.0452 22.8124
lfingers 7.12502
lthumb 8.22675 52.6322
rfemur 8.21848 2.57941 29.5471
rtibia 15.6552
rfoot -15.3879 -8.58829
rtoes -2.49088
lfemur -29.5151 -5.47188 -13.3791
ltibia 19.2903
lfoot -9.73271 6.6817
ltoes -6.8291
66
root -9.03029 17.3217 -25.5059 1.23538 -4.97455 -3.06085
lowerback 5.84736 1.98635 2.36079
upperback 0.562262 2.86317 2.3221
thorax -2.70057 1.40999 0.837341
lowerneck -16.5957 -3.82039 -8.38782
upperneck 19.6809 -4.281 5.29501
head 9.23178 -2.05867 2.65976
rclavicle -2.93207e-014 -3.57812e-015
rhumerus -23.7192 -6.01728 -80.4391
rradius 37.3691
rwrist 2.96241
rhand -13.9768 9.43
rfingers 7.12502
rthumb 12.1515 -20.1971
lclavicle -2.93207e-014 -3.57812e-015
lhumerus -32.1218 13.1667 85.6996
lradius 19.7105
lwrist -13.9302
lhand -18.3786 23.027
lfingers 7.12502
lthumb 7.90495 52.8592
rfemur 8.8714 2.93571 29.5283
rtibia 15.6989
rfoot -15.4128 -8.57012
rtoes -3.23828
lfemur -29.3402 -5.85007 -13.2365
ltibia 18.9879
lfoot -10.3896 7.1567
ltoes -7.58327
67
root -9.02267 17.311 -25.3586 1.34224 -5.06481 -3.05067
lowerback 5.82961 2.01661 2.35863
upperback 0.51143 2.90191 2.23565
thorax -2.73859 1.42834 0.746123
lowerneck -17.0027 -3.74612 -8.30695
upperneck 20.0611 -4.24053 5.56169
head 9.43883 -2.00073 2.74534
rclavicle 1.63997e-014 -2.54444e-014
rhumerus -23.5788 -6.2659 -80.5622
rradius 37.1892
rwrist 2.95915
rhand -13.977 9.60194
rfingers 7.12502
rthumb 12.1513 -20.0252
lclavicle 1.63997e-014 -2.54444e-014
lhumerus -32.1114 13.1012 85.4903
lradius 19.4405
lwrist -13.9926
lhand -18.3955 22.2625
lfingers 7.12502
lthumb 7.88866 52.0953
rfemur 9.27798 3.25755 29.5177
rtibia 15.7942
rfoot -15.2613 -8.69689
rtoes -3.88573
lfemur -29.4858 -5.49053 -13.4549
ltibia 19.0702
lfoot -10.426 6.72681
ltoes -7.78084
68
root -9.01443 17.2998 -25.2159 1.33203 -5.05341 -3.15752
lowerback 6.07966 1.98249 2.45314
upperback 0.425996 2.87628 2.25276
thorax -2.9632 1.41189 0.701891
lowerneck -17.6475 -3.41581 -8.70228
upperneck 21.338 -3.84744 6.32807
head 10.001 -1.7614 3.15148
rclavicle 1.37161e-014 -9.14409e-015
rhumerus -23.5868 -6.38703 -80.6114
rradius 37.0608
rwrist 3.01857
rhand -13.9831 9.62579
rfingers 7.12502
rthumb 12.1454 -20.0017
lclavicle 1.37161e-014 -9.14409e-015
lhumerus -32.246 13.605 85.095
lradius 19.1702
lwrist -14.8683
lhand -19.3538 19.6084
lfingers 7.12502
lthumb 6.96367 49.4738
rfemur 9.69089 3.2509 29.605
rtibia 16.114
rfoot -14.7761 -8.84791
rtoes -4.79817
lfemur -29.4867 -4.70605 -13.7656
ltibia 19.2663
lfoot -9.74352 5.84177
ltoes -6.87733
69
root -9.00079 17.2857 -25.0691 1.20208 -5.00392 -3.20497
lowerback 6.44056 1.96356 2.53418
upperback 0.315978 2.87476 2.22717
thorax -3.27393 1.406 0.614737
lowerneck -17.4329 -3.63178 -8.58509
upperneck 21.1057 -4.15002 6.15178
head 9.89799 -1.914 3.02329
rclavicle -2.67862e-014 -8.34896e-015
rhumerus -23.8743 -6.59723 -80.6467
rradius 37.0476
rwrist 3.08453
rhand -14.2165 9.81819
rfingers 7.12502
rthumb 11.9204 -19.8224
lclavicle -2.67862e-014 -8.34896e-015
lhumerus -32.6117 13.6408 84.8649
lradius 19.1854
lwrist -15.1852
lhand -17.9297 21.1878
lfingers 7.12502
lthumb 8.33823 51.0032
rfemur 10.0062 3.1425 29.6172
rtibia 16.8214
rfoot -13.9462 -9.10555
rtoes -5.93948
lfemur -29.2314 -4.02408 -14.1873
ltibia 19.4167
lfoot -8.56773 5.04197
ltoes -6.23827
70
root -8.9818 17.2893 -24.9127 1.07722 -4.84543 -3.07516
lowerback 6.46001 1.83268 2.51704
upperback 0.289882 2.69992 2.19487
thorax -3.31202 1.31864 0.605539
lowerneck -17.0168 -3.5399 -8.53395
upperneck 20.9996 -4.06691 6.14762
head 9.77414 -1.87833 3.02613
rclavicle -2.28851e-014 -7.95139e-015
rhumerus -24.0453 -6.71554 -80.6702
rradius 36.9785
rwrist 3.20115
rhand -14.1485 9.85209
rfingers 7.12502
rthumb 11.986 -19.7847
lclavicle -2.28851e-014 -7.95139e-015
lhumerus -32.9853 13.7812 84.7285
lradius 19.1822
lwrist -15.0571
lhand -11.3943 30.1577
lfingers 7.12502
lthumb 14.6406 59.6208
rfemur 10.1419 3.05092 29.3836
rtibia 17.7461
rfoot -13.9928 -8.90959
rtoes -6.15286
lfemur -28.9088 -3.5958 -14.837
ltibia 19.7088
lfoot -7.56576 4.52943
ltoes -7.09564
71
root -8.96318 17.2895 -24.7473 0.973822 -4.75975 -2.78121
lowerback 6.28489 1.72618 2.26365
upperback 0.332509 2.53159 2.19588
thorax -3.18162 1.24037 0.769671
lowerneck -16.453 -3.67455 -8.71406
upperneck 20.3904 -4.17818 5.92617
head 9.46501 -1.97448 2.95798
rclavicle -1.39149e-015 1.27222e-014
rhumerus -24.2271 -6.72818 -80.5934
rradius 37.0278
rwrist 3.38099
rhand -14.1555 9.62645
rfingers 7.12502
rthumb 11.9791 -20.0108
lclavicle -1.39149e-015 1.27222e-014
lhumerus -33.0204 14.1492 84.6323
lradius 18.9739
lwrist -15.2984
lhand -15.7874 24.294
lfingers 7.12502
lthumb 10.4052 54.0165
rfemur 10.2208 3.16612 28.9638
rtibia 18.8089
rfoot -14.4807 -8.55674
rtoes -6.80763
lfemur -28.5255 -3.42598 -15.5651
ltibia 20.1242
lfoot -6.9776 4.32702
ltoes -7.92237
72
root -8.94786 17.276 -24.5826 0.795999 -4.9559 -2.75189
lowerback 6.3519 1.8381 2.15175
upperback 0.547707 2.66919 2.24082
thorax -3.00375 1.31265 0.868042
lowerneck -17.299 -3.72852 -8.62386
upperneck 20.6254 -4.20444 5.89481
head 9.70363 -1.97073 2.92478
rclavicle 2.74323e-014 7.95139e-015
rhumerus -24.051 -7.25709 -80.4292
rradius 36.8767
rwrist 3.58486
rhand -14.0246 9.85235
rfingers 7.12502
rthumb 12.1054 -19.7775
lclavicle 2.74323e-014 7.95139e-015
lhumerus -32.5144 14.5532 84.5441
lradius 18.665
lwrist -16.4397
lhand -16.2253 22.8106
lfingers 7.12502
lthumb 9.98284 52.5539
rfemur 10.4373 3.37919 28.8698
rtibia 19.9335
rfoot -14.4627 -8.50052
rtoes -9.81119
lfemur -28.0214 -3.15681 -15.8918
ltibia 20.5274
lfoot -6.48953 4.10593
ltoes -8.28397
73
root -8.93127 17.27 -24.4109 0.617434 -5.42548 -2.91059
lowerback 6.32176 2.02662 2.23204
upperback 0.718656 2.92131 2.33353
thorax -2.81148 1.43956 0.90149
lowerneck -17.9337 -3.60904 -8.67321
upperneck 21.1307 -4.04952 6.1508
head 9.99421 -1.86673 3.04914
rclavicle -2.31584e-014 -5.1684e-015
rhumerus -23.9168 -7.60751 -80.2827
rradius 36.556
rwrist 3.56545
rhand -13.9357 10.3858
rfingers 7.12502
rthumb 12.1911 -19.2389
lclavicle -2.31584e-014 -5.1684e-015
lhumerus -32.296 14.7557 84.5292
lradius 18.5185
lwrist -17.2469
lhand -14.903 24.0538
lfingers 7.12502
lthumb 11.2583 53.7317
rfemur 10.663 3.6162 28.8911
rtibia 20.9904
rfoot -14.3483 -7.9842
rtoes -11.8699
lfemur -27.4646 -3.13572 -15.8357
ltibia 21.0359
lfoot -6.22041 4.0292
ltoes -8.48805
74
root -8.91155 17.2803 -24.2264 0.380832 -5.80279 -2.91709
lowerback 6.27106 1.97365 2.08795
upperback 0.373906 2.85793 2.53178
thorax -3.15674 1.40785 1.18663
lowerneck -15.6044 -3.53658 -8.886
upperneck 20.044 -3.97887 5.81535
head 9.17363 -1.91813 2.97641
rclavicle 2.06239e-014 1.74931e-014
rhumerus -25.0763 -7.05246 -80.0819
rradius 36.581
rwrist 3.4253
rhand -13.8993 10.3425
rfingers 7.12502
rthumb 12.2262 -19.2801
lclavicle 2.06239e-014 1.74931e-014
lhumerus -33.5875 14.868 84.4215
lradius 18.9361
lwrist -16.9695
lhand -13.9137 25.6555
lfingers 7.12502
lthumb 12.2123 55.279
rfemur 10.9521 3.7839 28.7138
rtibia 21.9912
rfoot -14.2348 -7.30842
rtoes -11.4225
lfemur -26.8673 -3.29335 -15.9389
ltibia 21.5955
lfoot -5.60342 3.46094
ltoes -7.70471
